<svg xmlns="http://www.w3.org/2000/svg" width="800" height="800" viewBox="0 0 800 800">
<rect width="800" height="800" fill="#020617"/>
<text x="400.0" y="42" fill="#f8fafc" font-size="28" font-weight="700" text-anchor="middle">Mercury Invariant Riverbed</text>
<text x="400.0" y="70" fill="#94a3b8" font-size="15" text-anchor="middle">shared by at least two cipher tributaries</text>
<line x1="90" y1="90.00" x2="710.00" y2="90.00" stroke="#334155" stroke-opacity="0.35"/>
<line x1="90.00" y1="90" x2="90.00" y2="710.00" stroke="#334155" stroke-opacity="0.35"/>
<line x1="90" y1="178.57" x2="710.00" y2="178.57" stroke="#334155" stroke-opacity="0.35"/>
<line x1="178.57" y1="90" x2="178.57" y2="710.00" stroke="#334155" stroke-opacity="0.35"/>
<line x1="90" y1="267.14" x2="710.00" y2="267.14" stroke="#334155" stroke-opacity="0.35"/>
<line x1="267.14" y1="90" x2="267.14" y2="710.00" stroke="#334155" stroke-opacity="0.35"/>
<line x1="90" y1="355.71" x2="710.00" y2="355.71" stroke="#334155" stroke-opacity="0.35"/>
<line x1="355.71" y1="90" x2="355.71" y2="710.00" stroke="#334155" stroke-opacity="0.35"/>
<line x1="90" y1="444.29" x2="710.00" y2="444.29" stroke="#334155" stroke-opacity="0.35"/>
<line x1="444.29" y1="90" x2="444.29" y2="710.00" stroke="#334155" stroke-opacity="0.35"/>
<line x1="90" y1="532.86" x2="710.00" y2="532.86" stroke="#334155" stroke-opacity="0.35"/>
<line x1="532.86" y1="90" x2="532.86" y2="710.00" stroke="#334155" stroke-opacity="0.35"/>
<line x1="90" y1="621.43" x2="710.00" y2="621.43" stroke="#334155" stroke-opacity="0.35"/>
<line x1="621.43" y1="90" x2="621.43" y2="710.00" stroke="#334155" stroke-opacity="0.35"/>
<line x1="90" y1="710.00" x2="710.00" y2="710.00" stroke="#334155" stroke-opacity="0.35"/>
<line x1="710.00" y1="90" x2="710.00" y2="710.00" stroke="#334155" stroke-opacity="0.35"/>
<line x1="444.29" y1="621.43" x2="267.14" y2="621.43" stroke="#34d399" stroke-width="3.50" stroke-opacity="0.72" stroke-linecap="round"/>
<line x1="710.00" y1="621.43" x2="444.29" y2="444.29" stroke="#34d399" stroke-width="3.50" stroke-opacity="0.72" stroke-linecap="round"/>
<line x1="267.14" y1="710.00" x2="621.43" y2="355.71" stroke="#34d399" stroke-width="3.50" stroke-opacity="0.72" stroke-linecap="round"/>
<line x1="532.86" y1="444.29" x2="710.00" y2="621.43" stroke="#34d399" stroke-width="3.50" stroke-opacity="0.72" stroke-linecap="round"/>
<line x1="444.29" y1="444.29" x2="267.14" y2="178.57" stroke="#34d399" stroke-width="3.50" stroke-opacity="0.72" stroke-linecap="round"/>
<line x1="621.43" y1="355.71" x2="532.86" y2="444.29" stroke="#34d399" stroke-width="3.50" stroke-opacity="0.72" stroke-linecap="round"/>
<line x1="90.00" y1="444.29" x2="444.29" y2="621.43" stroke="#34d399" stroke-width="3.50" stroke-opacity="0.72" stroke-linecap="round"/>
<line x1="267.14" y1="621.43" x2="267.14" y2="710.00" stroke="#34d399" stroke-width="3.50" stroke-opacity="0.72" stroke-linecap="round"/>
<circle cx="532.86" cy="444.29" r="12" fill="#34d399" fill-opacity="0.55" stroke="#34d399" stroke-width="2"/>
<text x="532.86" y="427.29" fill="#f8fafc" font-size="13" text-anchor="middle">30</text>
<circle cx="444.29" cy="444.29" r="12" fill="#34d399" fill-opacity="0.55" stroke="#34d399" stroke-width="2"/>
<text x="444.29" y="427.29" fill="#f8fafc" font-size="13" text-anchor="middle">36</text>
<circle cx="90.00" cy="444.29" r="12" fill="#34d399" fill-opacity="0.55" stroke="#34d399" stroke-width="2"/>
<text x="90.00" y="427.29" fill="#f8fafc" font-size="13" text-anchor="middle">40</text>
<circle cx="267.14" cy="710.00" r="10" fill="#34d399" fill-opacity="0.55" stroke="#34d399" stroke-width="2"/>
<text x="267.14" y="695.00" fill="#f8fafc" font-size="13" text-anchor="middle">3</text>
<circle cx="444.29" cy="621.43" r="10" fill="#34d399" fill-opacity="0.55" stroke="#34d399" stroke-width="2"/>
<text x="444.29" y="606.43" fill="#f8fafc" font-size="13" text-anchor="middle">13</text>
<circle cx="267.14" cy="178.57" r="10" fill="#34d399" fill-opacity="0.55" stroke="#34d399" stroke-width="2"/>
<text x="267.14" y="163.57" fill="#f8fafc" font-size="13" text-anchor="middle">14</text>
<circle cx="710.00" cy="621.43" r="10" fill="#34d399" fill-opacity="0.55" stroke="#34d399" stroke-width="2"/>
<text x="710.00" y="606.43" fill="#f8fafc" font-size="13" text-anchor="middle">16</text>
<circle cx="621.43" cy="355.71" r="10" fill="#34d399" fill-opacity="0.55" stroke="#34d399" stroke-width="2"/>
<text x="621.43" y="340.71" fill="#f8fafc" font-size="13" text-anchor="middle">39</text>
<circle cx="267.14" cy="621.43" r="10" fill="#34d399" fill-opacity="0.55" stroke="#34d399" stroke-width="2"/>
<text x="267.14" y="606.43" fill="#f8fafc" font-size="13" text-anchor="middle">54</text>
<text x="400.0" y="776" fill="#94a3b8" font-size="14" text-anchor="middle">nodes 9 · channels 8 · node consensus 0.6</text>
</svg>